<?xml version="1.0" encoding="UTF-8"?>
<!DOCTYPE svg PUBLIC "-//W3C//DTD SVG 1.1//EN" "http://www.w3.org/Graphics/SVG/1.1/DTD/svg11.dtd">
<svg xmlns="http://www.w3.org/2000/svg" version="1.1" width="123px" height="121px" style="shape-rendering:geometricPrecision; text-rendering:geometricPrecision; image-rendering:optimizeQuality; fill-rule:evenodd; clip-rule:evenodd" xmlns:xlink="http://www.w3.org/1999/xlink">
<g><path style="opacity:0.907" fill="#171748" d="M 2.5,-0.5 C 19.1667,-0.5 35.8333,-0.5 52.5,-0.5C 54.1436,0.316435 55.3103,1.64977 56,3.5C 56.9703,20.2583 56.6369,36.925 55,53.5C 53.8289,54.8932 52.3289,55.7265 50.5,56C 35.1667,56.6667 19.8333,56.6667 4.5,56C 2.67694,55.0027 1.01027,53.8361 -0.5,52.5C -0.5,35.8333 -0.5,19.1667 -0.5,2.5C 0.833333,1.83333 1.83333,0.833333 2.5,-0.5 Z M 6.5,6.5 C 20.5,6.5 34.5,6.5 48.5,6.5C 48.5,20.5 48.5,34.5 48.5,48.5C 34.5,48.5 20.5,48.5 6.5,48.5C 6.5,34.5 6.5,20.5 6.5,6.5 Z"/></g>
<g><path style="opacity:0.881" fill="#171748" d="M 68.5,-0.5 C 85.1667,-0.5 101.833,-0.5 118.5,-0.5C 120.074,0.984169 121.407,2.65084 122.5,4.5C 122.5,19.8333 122.5,35.1667 122.5,50.5C 121.35,53.1458 119.35,54.9791 116.5,56C 101.167,56.6667 85.8333,56.6667 70.5,56C 67.6667,55.1667 65.8333,53.3333 65,50.5C 64.3333,35.1667 64.3333,19.8333 65,4.5C 65.6972,2.4156 66.8639,0.748938 68.5,-0.5 Z M 72.5,6.5 C 86.5,6.5 100.5,6.5 114.5,6.5C 114.5,20.5 114.5,34.5 114.5,48.5C 100.5,48.5 86.5,48.5 72.5,48.5C 72.5,34.5 72.5,20.5 72.5,6.5 Z"/></g>
<g><path style="opacity:0.905" fill="#171748" d="M 52.5,120.5 C 35.8333,120.5 19.1667,120.5 2.5,120.5C 1.83333,119.167 0.833333,118.167 -0.5,117.5C -0.5,100.833 -0.5,84.1667 -0.5,67.5C 1.01027,66.1639 2.67694,64.9973 4.5,64C 20.9004,63.045 37.2337,63.3783 53.5,65C 54.7014,65.9025 55.5348,67.0692 56,68.5C 56.6667,84.5 56.6667,100.5 56,116.5C 55.3103,118.35 54.1436,119.684 52.5,120.5 Z M 6.5,71.5 C 20.5,71.5 34.5,71.5 48.5,71.5C 48.5,85.5 48.5,99.5 48.5,113.5C 34.5,113.5 20.5,113.5 6.5,113.5C 6.5,99.5 6.5,85.5 6.5,71.5 Z"/></g>
<g><path style="opacity:0.941" fill="#171748" d="M 122.5,85.5 C 122.5,90.8333 122.5,96.1667 122.5,101.5C 116.925,102.452 111.259,102.786 105.5,102.5C 106.023,108.718 105.356,114.718 103.5,120.5C 98.1667,120.5 92.8333,120.5 87.5,120.5C 86.5447,114.591 86.2114,108.591 86.5,102.5C 80.8236,102.666 75.1569,102.499 69.5,102C 68.3611,96.5838 68.1944,91.0838 69,85.5C 69.5,85 70,84.5 70.5,84C 75.8229,83.5006 81.1563,83.334 86.5,83.5C 86.334,78.1563 86.5006,72.8229 87,67.5C 89.5871,65.9862 92.4205,65.3196 95.5,65.5C 98.5795,65.3196 101.413,65.9862 104,67.5C 105.397,72.7081 105.897,78.0414 105.5,83.5C 110.511,83.3341 115.511,83.5007 120.5,84C 121.044,84.7172 121.711,85.2172 122.5,85.5 Z"/></g>
</svg>
