<?xml version="1.0" encoding="UTF-8"?>
<!DOCTYPE svg PUBLIC "-//W3C//DTD SVG 1.1//EN" "http://www.w3.org/Graphics/SVG/1.1/DTD/svg11.dtd">
<svg xmlns="http://www.w3.org/2000/svg" version="1.1" width="123px" height="117px" style="shape-rendering:geometricPrecision; text-rendering:geometricPrecision; image-rendering:optimizeQuality; fill-rule:evenodd; clip-rule:evenodd" xmlns:xlink="http://www.w3.org/1999/xlink">
<g><path style="opacity:0.874" fill="#171748" d="M 10.5,-0.5 C 36.5,-0.5 62.5,-0.5 88.5,-0.5C 93.1434,1.97883 96.6434,5.64549 99,10.5C 99.6667,25.8333 99.6667,41.1667 99,56.5C 96.8327,63.0095 92.3327,66.8428 85.5,68C 71.8333,68.3333 58.1667,68.6667 44.5,69C 36.2038,75.6274 28.2038,82.6274 20.5,90C 18.5594,90.7429 16.7261,90.5762 15,89.5C 15.3356,82.4815 15.1689,75.4815 14.5,68.5C 7.4668,67.4496 2.4668,63.7829 -0.5,57.5C -0.5,41.8333 -0.5,26.1667 -0.5,10.5C 2.14161,5.85837 5.80828,2.1917 10.5,-0.5 Z M 14.5,5.5 C 38.8985,5.02922 63.2318,5.52922 87.5,7C 90.1353,8.96053 91.9686,11.4605 93,14.5C 93.6667,27.1667 93.6667,39.8333 93,52.5C 92.2703,56.8963 89.7703,59.7296 85.5,61C 71.1667,61.3333 56.8333,61.6667 42.5,62C 35.3725,67.4586 28.5392,73.2919 22,79.5C 22.4559,73.8704 22.4559,68.2037 22,62.5C 17.6597,62.0174 13.493,60.8508 9.5,59C 7.95884,57.4207 6.79217,55.5873 6,53.5C 5.33333,40.5 5.33333,27.5 6,14.5C 7.3513,9.98479 10.1846,6.98479 14.5,5.5 Z M 67.5,37.5 C 64.4295,33.025 65.2628,29.3584 70,26.5C 73.9647,28.1674 75.4647,31.1674 74.5,35.5C 71.6122,34.9898 69.2789,35.6565 67.5,37.5 Z M 44.5,29.5 C 45.7384,31.2143 46.405,33.2143 46.5,35.5C 45.5,35.5 44.5,35.5 43.5,35.5C 43.8333,33.5 44.1667,31.5 44.5,29.5 Z"/></g>
<g><path style="opacity:0.813" fill="#171748" d="M 16.5,20.5 C 22.5,20.5 28.5,20.5 34.5,20.5C 34.5,22.5 34.5,24.5 34.5,26.5C 31.1667,26.5 27.8333,26.5 24.5,26.5C 24.5,27.5 24.5,28.5 24.5,29.5C 27.5,29.5 30.5,29.5 33.5,29.5C 33.5,31.8333 33.5,34.1667 33.5,36.5C 30.5,36.5 27.5,36.5 24.5,36.5C 24.5,39.5 24.5,42.5 24.5,45.5C 21.8333,45.5 19.1667,45.5 16.5,45.5C 16.5,37.1667 16.5,28.8333 16.5,20.5 Z"/></g>
<g><path style="opacity:0.865" fill="#171748" d="M 39.5,20.5 C 43.1667,20.5 46.8333,20.5 50.5,20.5C 52.9889,28.7889 55.3222,37.1222 57.5,45.5C 54.8333,45.5 52.1667,45.5 49.5,45.5C 49.8365,42.1702 48.3365,40.5036 45,40.5C 41.6635,40.5036 40.1635,42.1702 40.5,45.5C 37.8333,45.5 35.1667,45.5 32.5,45.5C 34.9889,37.2111 37.3222,28.8778 39.5,20.5 Z M 44.5,29.5 C 44.1667,31.5 43.8333,33.5 43.5,35.5C 44.5,35.5 45.5,35.5 46.5,35.5C 46.405,33.2143 45.7384,31.2143 44.5,29.5 Z"/></g>
<g><path style="opacity:0.844" fill="#171748" d="M 64.5,20.5 C 75.2855,18.044 81.2855,22.2107 82.5,33C 82.2043,36.3871 81.2043,39.5537 79.5,42.5C 80.1279,44.2581 81.1279,45.7581 82.5,47C 76.6552,46.2139 70.6552,45.5473 64.5,45C 60.07,42.2337 57.7367,38.2337 57.5,33C 57.6486,27.5294 59.982,23.3627 64.5,20.5 Z M 67.5,37.5 C 69.2789,35.6565 71.6122,34.9898 74.5,35.5C 75.4647,31.1674 73.9647,28.1674 70,26.5C 65.2628,29.3584 64.4295,33.025 67.5,37.5 Z"/></g>
<g><path style="opacity:0.944" fill="#171748" d="M 122.5,34.5 C 122.5,50.8333 122.5,67.1667 122.5,83.5C 119.361,90.2985 114.027,93.9652 106.5,94.5C 107.069,101.916 107.069,109.249 106.5,116.5C 105.167,116.5 103.833,116.5 102.5,116.5C 94.0631,109.236 85.7298,101.736 77.5,94C 64.1667,93.6667 50.8333,93.3333 37.5,93C 42.2682,87.4759 47.2682,82.1426 52.5,77C 66.8333,76.6667 81.1667,76.3333 95.5,76C 101.666,75.5042 105.833,72.3375 108,66.5C 108.167,52.1551 108.667,37.8217 109.5,23.5C 115.399,25.4048 119.732,29.0715 122.5,34.5 Z"/></g>
</svg>
