<?xml version="1.0" encoding="UTF-8"?>
<!DOCTYPE svg PUBLIC "-//W3C//DTD SVG 1.1//EN" "http://www.w3.org/Graphics/SVG/1.1/DTD/svg11.dtd">
<svg xmlns="http://www.w3.org/2000/svg" version="1.1" width="512px" height="512px" style="shape-rendering:geometricPrecision; text-rendering:geometricPrecision; image-rendering:optimizeQuality; fill-rule:evenodd; clip-rule:evenodd" xmlns:xlink="http://www.w3.org/1999/xlink">
<g><path style="opacity:0.976" fill="#171748" d="M 60.5,-0.5 C 125.833,-0.5 191.167,-0.5 256.5,-0.5C 274.525,4.552 280.025,15.8853 273,33.5C 270.404,37.3901 266.904,40.2234 262.5,42C 194.544,43.32 126.544,43.9866 58.5,44C 50.2253,46.6073 45.0587,52.1073 43,60.5C 42.3333,190.5 42.3333,320.5 43,450.5C 45.0587,458.893 50.2253,464.393 58.5,467C 126.544,467.013 194.544,467.68 262.5,469C 276.08,476.465 279.58,487.299 273,501.5C 268.893,507.297 263.393,510.63 256.5,511.5C 191.167,511.5 125.833,511.5 60.5,511.5C 27.6472,507.647 7.31382,489.647 -0.5,457.5C -0.5,322.833 -0.5,188.167 -0.5,53.5C 7.31382,21.3526 27.6472,3.35262 60.5,-0.5 Z"/></g>
<g><path style="opacity:0.97" fill="#171748" d="M 511.5,249.5 C 511.5,253.5 511.5,257.5 511.5,261.5C 510.379,263.741 509.213,266.075 508,268.5C 464.194,311.306 420.694,354.472 377.5,398C 365.181,407.334 353.681,406.5 343,395.5C 338.333,387.167 338.333,378.833 343,370.5C 373.861,339.305 405.028,308.472 436.5,278C 353.833,277.667 271.167,277.333 188.5,277C 173.515,273.882 167.348,264.715 170,249.5C 172.812,240.357 178.978,235.19 188.5,234C 271.167,233.667 353.833,233.333 436.5,233C 405.028,202.528 373.861,171.695 343,140.5C 336.964,128.826 338.798,118.659 348.5,110C 358.846,104.637 368.512,105.637 377.5,113C 420.694,156.528 464.194,199.694 508,242.5C 509.213,244.925 510.379,247.259 511.5,249.5 Z"/></g>
</svg>
