<?xml version="1.0" encoding="UTF-8"?>
<!DOCTYPE svg PUBLIC "-//W3C//DTD SVG 1.1//EN" "http://www.w3.org/Graphics/SVG/1.1/DTD/svg11.dtd">
<svg xmlns="http://www.w3.org/2000/svg" version="1.1" width="512px" height="539px" style="shape-rendering:geometricPrecision; text-rendering:geometricPrecision; image-rendering:optimizeQuality; fill-rule:evenodd; clip-rule:evenodd" xmlns:xlink="http://www.w3.org/1999/xlink">
<g><path style="opacity:0.974" fill="#171748" d="M 19.5,-0.5 C 101.833,-0.5 184.167,-0.5 266.5,-0.5C 313.271,44.4361 359.938,89.6027 406.5,135C 413.19,137.026 417.023,141.526 418,148.5C 418.991,178.645 418.658,208.645 417,238.5C 406.834,232.752 396.834,226.752 387,220.5C 386.5,203.17 386.333,185.837 386.5,168.5C 343.165,168.667 299.832,168.5 256.5,168C 249.348,165.844 245.515,161.01 245,153.5C 244.5,112.501 244.333,71.5014 244.5,30.5C 173.167,30.5 101.833,30.5 30.5,30.5C 30.5,183.167 30.5,335.833 30.5,488.5C 109.501,488.333 188.501,488.5 267.5,489C 274.468,499.101 281.801,508.935 289.5,518.5C 200.169,519.667 110.835,519.833 21.5,519C 10.4999,516.493 3.16655,509.993 -0.5,499.5C -0.5,339.5 -0.5,179.5 -0.5,19.5C 3.16667,9.83333 9.83333,3.16667 19.5,-0.5 Z M 276.5,54.5 C 306.297,81.7944 335.963,109.294 365.5,137C 335.835,137.5 306.169,137.667 276.5,137.5C 276.5,109.833 276.5,82.1667 276.5,54.5 Z"/></g>
<g><path style="opacity:0.93" fill="#171748" d="M 91.5,102.5 C 111.836,102.333 132.169,102.5 152.5,103C 162.117,106.737 164.617,113.237 160,122.5C 158.363,124.81 156.196,126.31 153.5,127C 132.5,127.667 111.5,127.667 90.5,127C 81.9412,122.657 79.7745,116.157 84,107.5C 86.1699,105.177 88.6699,103.51 91.5,102.5 Z"/></g>
<g><path style="opacity:0.974" fill="#171748" d="M 88.5,171.5 C 126.501,171.333 164.501,171.5 202.5,172C 209.078,175.561 211.245,181.061 209,188.5C 207.5,191.333 205.333,193.5 202.5,195C 164.833,195.667 127.167,195.667 89.5,195C 79.1784,187.561 78.8451,179.728 88.5,171.5 Z"/></g>
<g><path style="opacity:0.938" fill="#171748" d="M 90.5,244.5 C 153.501,244.333 216.501,244.5 279.5,245C 287.239,248.542 289.739,254.375 287,262.5C 286.215,264.286 285.049,265.786 283.5,267C 279.886,267.945 276.219,268.612 272.5,269C 212.5,269.667 152.5,269.667 92.5,269C 85.7311,267.896 82.0644,263.896 81.5,257C 82.0841,250.94 85.0841,246.773 90.5,244.5 Z"/></g>
<g><path style="opacity:0.987" fill="#171748" d="M 511.5,305.5 C 511.5,322.167 511.5,338.833 511.5,355.5C 509.122,386.201 501.955,415.868 490,444.5C 468.845,489.158 435.345,520.492 389.5,538.5C 387.833,538.5 386.167,538.5 384.5,538.5C 329.889,516.718 293.722,477.718 276,421.5C 264.883,382.948 260.383,343.615 262.5,303.5C 298.773,305.431 332.773,297.598 364.5,280C 372.01,275.151 379.51,270.318 387,265.5C 415.686,284.256 446.853,297.09 480.5,304C 490.797,305.226 501.13,305.726 511.5,305.5 Z M 429.5,334.5 C 438.857,334.168 448.19,334.502 457.5,335.5C 422.41,374.435 392.577,417.101 368,463.5C 357.456,436.736 340.456,415.069 317,398.5C 316.667,395.332 317.501,392.499 319.5,390C 327.833,389.333 336.167,389.333 344.5,390C 352.858,394.687 360.358,400.52 367,407.5C 384.416,380.25 405.249,355.917 429.5,334.5 Z"/></g>
<g><path style="opacity:0.935" fill="#171748" d="M 91.5,317.5 C 134.833,317.5 178.167,317.5 221.5,317.5C 222.078,325.845 222.745,334.178 223.5,342.5C 179.165,342.667 134.832,342.5 90.5,342C 81.9562,337.702 79.7895,331.202 84,322.5C 86.1699,320.177 88.6699,318.51 91.5,317.5 Z"/></g>
<g><path style="opacity:0.972" fill="#171748" d="M 89.5,391.5 C 136.505,391.167 183.505,391.5 230.5,392.5C 232.27,400.083 234.27,407.583 236.5,415C 187.5,415.667 138.5,415.667 89.5,415C 81.1695,409.834 79.6695,403 85,394.5C 86.6516,393.601 88.1516,392.601 89.5,391.5 Z"/></g>
</svg>
