<?xml version="1.0" encoding="UTF-8"?>
<!DOCTYPE svg PUBLIC "-//W3C//DTD SVG 1.1//EN" "http://www.w3.org/Graphics/SVG/1.1/DTD/svg11.dtd">
<svg xmlns="http://www.w3.org/2000/svg" version="1.1" width="297px" height="297px" style="shape-rendering:geometricPrecision; text-rendering:geometricPrecision; image-rendering:optimizeQuality; fill-rule:evenodd; clip-rule:evenodd" xmlns:xlink="http://www.w3.org/1999/xlink">
<g><path style="opacity:0.933" fill="#171748" d="M 216.5,-0.5 C 222.5,-0.5 228.5,-0.5 234.5,-0.5C 255.725,6.91333 265.558,21.9133 264,44.5C 259.323,65.3382 246.323,76.3382 225,77.5C 205.707,76.5426 193.04,66.8759 187,48.5C 183.079,23.6498 192.912,7.31647 216.5,-0.5 Z M 222.5,16.5 C 239.109,17.9382 246.942,26.9382 246,43.5C 239.963,58.2658 229.463,62.7658 214.5,57C 200.792,45.7141 200.125,33.7141 212.5,21C 215.815,19.1702 219.149,17.6702 222.5,16.5 Z"/></g>
<g><path style="opacity:0.938" fill="#171748" d="M 104.5,16.5 C 108.308,16.1632 111.974,16.6632 115.5,18C 125.333,27.8333 135.167,37.6667 145,47.5C 147.828,51.3021 148.161,55.3021 146,59.5C 135.5,70 125,80.5 114.5,91C 104.481,93.6475 99.9808,89.8142 101,79.5C 105.467,74.0319 110.3,68.8653 115.5,64C 72.1123,69.7121 44.4456,93.7121 32.5,136C 32.6448,136.772 32.9781,137.439 33.5,138C 36.3286,139.247 38.9952,140.747 41.5,142.5C 42.3265,138.541 42.8265,134.541 43,130.5C 44.1667,128 46,126.167 48.5,125C 63.5,124.333 78.5,124.333 93.5,125C 96.0573,125.685 97.8906,127.185 99,129.5C 99.1725,133.871 99.6725,138.204 100.5,142.5C 103.329,141.253 105.995,139.753 108.5,138C 111.964,137.183 115.298,137.517 118.5,139C 127.241,152.24 134.908,166.073 141.5,180.5C 141.101,182.197 140.601,183.863 140,185.5C 136.588,188.123 133.088,190.623 129.5,193C 133.44,194.886 136.94,197.386 140,200.5C 142,203.833 142,207.167 140,210.5C 133.127,223.085 125.627,235.252 117.5,247C 115.966,247.923 114.299,248.423 112.5,248.5C 107.882,247.441 103.715,245.441 100,242.5C 99.6667,247.167 99.3333,251.833 99,256.5C 97.8333,257.667 96.6667,258.833 95.5,260C 79.5,260.667 63.5,260.667 47.5,260C 44.8981,259.065 43.3981,257.232 43,254.5C 42.6667,250.5 42.3333,246.5 42,242.5C 36.9193,247.485 31.0859,248.985 24.5,247C 16.9564,235.416 9.78975,223.583 3,211.5C 1,207.5 1,203.5 3,199.5C 6.4162,197.208 9.9162,195.041 13.5,193C 9.36138,190.521 5.52805,187.687 2,184.5C 1.33333,181.833 1.33333,179.167 2,176.5C 5.33333,170.5 8.66667,164.5 12,158.5C 14.0524,110.175 36.5524,75.3412 79.5,54C 91.4014,49.2747 103.735,46.2747 116.5,45C 110.967,39.8017 105.8,34.3017 101,28.5C 99.7452,23.7378 100.912,19.7378 104.5,16.5 Z M 60.5,142.5 C 67.8333,142.5 75.1667,142.5 82.5,142.5C 78.7511,169.038 87.5845,174.371 109,158.5C 112.752,164.336 116.252,170.336 119.5,176.5C 114.874,180.152 109.874,183.319 104.5,186C 100.312,191.597 100.979,196.597 106.5,201C 110.75,203.374 114.916,205.874 119,208.5C 116.825,215.172 113.325,221.172 108.5,226.5C 86.8501,211.794 78.1834,217.461 82.5,243.5C 75.1667,243.5 67.8333,243.5 60.5,243.5C 64.3986,217.376 55.5653,211.71 34,226.5C 33.228,226.355 32.5613,226.022 32,225.5C 28.9597,219.918 25.793,214.418 22.5,209C 27.3343,205.748 32.3343,202.748 37.5,200C 40.8034,196.205 41.3034,192.038 39,187.5C 34.2367,183.576 29.0701,180.242 23.5,177.5C 22.479,176.998 22.3123,176.332 23,175.5C 26.5855,169.998 29.9188,164.331 33,158.5C 54.3918,174.22 63.5585,168.887 60.5,142.5 Z M 68.5,183.5 C 78.1018,183.727 81.6018,188.394 79,197.5C 75.0729,202.281 70.5729,203.115 65.5,200C 60.3157,193.542 61.3157,188.042 68.5,183.5 Z"/></g>
<g><path style="opacity:0.94" fill="#171748" d="M 202.5,296.5 C 199.5,296.5 196.5,296.5 193.5,296.5C 183.202,285.702 172.702,275.035 162,264.5C 160.517,261.298 160.183,257.964 161,254.5C 172.196,242.97 183.696,231.803 195.5,221C 205.367,220.535 208.867,225.035 206,234.5C 201.167,239.333 196.333,244.167 191.5,249C 227.156,245.506 252.823,227.673 268.5,195.5C 232.838,194.667 197.171,194.167 161.5,194C 159.714,193.215 158.214,192.049 157,190.5C 155.852,178.259 155.352,165.925 155.5,153.5C 155.667,141.833 155.833,130.167 156,118.5C 162.175,96.6723 176.675,85.839 199.5,86C 200.931,86.4652 202.097,87.2986 203,88.5C 207.667,101.167 212.333,113.833 217,126.5C 218.434,120.728 219.601,114.895 220.5,109C 217.856,103.377 215.19,97.7099 212.5,92C 212.903,90.5272 213.57,89.1939 214.5,88C 221.5,87.3333 228.5,87.3333 235.5,88C 237.396,89.8083 237.896,91.975 237,94.5C 234.366,98.9354 231.866,103.435 229.5,108C 230.828,114.466 231.994,120.966 233,127.5C 237.333,115.5 241.667,103.5 246,91.5C 247.122,89.3762 248.622,87.5429 250.5,86C 273.325,85.839 287.825,96.6723 294,118.5C 294.667,137.833 294.667,157.167 294,176.5C 286.672,216.957 263.839,244.791 225.5,260C 214.465,263.925 203.132,266.592 191.5,268C 197.41,273.239 202.577,279.072 207,285.5C 207.681,290.129 206.181,293.795 202.5,296.5 Z M 187.5,105.5 C 189.124,105.36 190.29,106.027 191,107.5C 199.473,130.422 207.64,153.422 215.5,176.5C 201.5,176.5 187.5,176.5 173.5,176.5C 173.333,157.83 173.5,139.164 174,120.5C 176.263,113.407 180.763,108.407 187.5,105.5 Z M 259.5,105.5 C 267.974,107.137 273.474,112.137 276,120.5C 276.667,137.167 276.667,153.833 276,170.5C 273.9,173.467 271.066,175.3 267.5,176C 256.485,176.832 245.485,176.666 234.5,175.5C 243.238,152.283 251.572,128.95 259.5,105.5 Z"/></g>
<g><path style="opacity:0.934" fill="#171748" d="M 67.5,165.5 C 83.8605,165.034 94.0272,172.701 98,188.5C 97.9719,210.86 86.8052,221.027 64.5,219C 54,216.5 47.5,210 45,199.5C 42.7894,181.557 50.2894,170.224 67.5,165.5 Z M 68.5,183.5 C 61.3157,188.042 60.3157,193.542 65.5,200C 70.5729,203.115 75.0729,202.281 79,197.5C 81.6018,188.394 78.1018,183.727 68.5,183.5 Z"/></g>
</svg>
