<?xml version="1.0" encoding="UTF-8"?>
<!DOCTYPE svg PUBLIC "-//W3C//DTD SVG 1.1//EN" "http://www.w3.org/Graphics/SVG/1.1/DTD/svg11.dtd">
<svg xmlns="http://www.w3.org/2000/svg" version="1.1" width="116px" height="123px" style="shape-rendering:geometricPrecision; text-rendering:geometricPrecision; image-rendering:optimizeQuality; fill-rule:evenodd; clip-rule:evenodd" xmlns:xlink="http://www.w3.org/1999/xlink">
<g><path style="opacity:0.918" fill="#171748" d="M 47.5,-0.5 C 54.5,-0.5 61.5,-0.5 68.5,-0.5C 85.3489,10.8967 92.1823,26.8967 89,47.5C 88.4677,50.2635 87.6343,52.9302 86.5,55.5C 84.5767,56.3078 82.5767,56.8078 80.5,57C 78.2861,59.9254 75.9528,62.7587 73.5,65.5C 76.9985,71.1682 81.9985,74.6682 88.5,76C 71.6287,83.2434 65.6287,95.7434 70.5,113.5C 46.8407,112.762 23.174,112.428 -0.5,112.5C -0.5,108.833 -0.5,105.167 -0.5,101.5C 1.71443,95.4234 5.04776,89.9234 9.5,85C 16.9422,79.9455 24.9422,75.9455 33.5,73C 37.1317,70.3702 40.465,67.3702 43.5,64C 41.1255,61.961 39.1255,59.6277 37.5,57C 34.3331,56.7482 31.3331,56.5815 28.5,56.5C 22.688,41.8551 23.5213,27.5218 31,13.5C 35.1976,7.12302 40.6976,2.45635 47.5,-0.5 Z M 76.5,36.5 C 79.8084,41.7958 80.3084,47.4624 78,53.5C 64.5549,72.3784 51.5549,72.0451 39,52.5C 34.9304,37.7834 37.9304,24.7834 48,13.5C 52.954,21.9083 59.7873,28.4083 68.5,33C 71,35.5 73.5,38 76,40.5C 76.49,39.2068 76.6567,37.8734 76.5,36.5 Z M 45.5,67.5 C 53.1552,70.9721 60.9885,71.3054 69,68.5C 71.3224,69.9921 73.489,71.6588 75.5,73.5C 70.2784,83.7535 61.9451,87.5869 50.5,85C 43.6196,83.3858 40.1196,79.2191 40,72.5C 41.8119,70.6997 43.6452,69.0331 45.5,67.5 Z"/></g>
<g><path style="opacity:0.891" fill="#171748" d="M 115.5,95.5 C 115.5,99.8333 115.5,104.167 115.5,108.5C 112.5,114.833 107.833,119.5 101.5,122.5C 97.1667,122.5 92.8333,122.5 88.5,122.5C 73.4645,114.887 69.9645,103.554 78,88.5C 86.4093,80.0219 95.9093,78.5219 106.5,84C 110.538,87.183 113.538,91.0164 115.5,95.5 Z M 92.5,90.5 C 94.1667,90.5 95.8333,90.5 97.5,90.5C 97.5,93.5 97.5,96.5 97.5,99.5C 100.5,99.5 103.5,99.5 106.5,99.5C 106.714,101.144 106.38,102.644 105.5,104C 102.854,104.497 100.187,104.664 97.5,104.5C 97.5,107.5 97.5,110.5 97.5,113.5C 95.8333,113.5 94.1667,113.5 92.5,113.5C 92.5,110.5 92.5,107.5 92.5,104.5C 89.5,104.5 86.5,104.5 83.5,104.5C 83.5,102.833 83.5,101.167 83.5,99.5C 86.1873,99.6641 88.854,99.4974 91.5,99C 92.4438,96.2809 92.7771,93.4475 92.5,90.5 Z"/></g>
</svg>
