<?xml version="1.0" encoding="UTF-8"?>
<!DOCTYPE svg PUBLIC "-//W3C//DTD SVG 1.1//EN" "http://www.w3.org/Graphics/SVG/1.1/DTD/svg11.dtd">
<svg xmlns="http://www.w3.org/2000/svg" version="1.1" width="96px" height="123px" style="shape-rendering:geometricPrecision; text-rendering:geometricPrecision; image-rendering:optimizeQuality; fill-rule:evenodd; clip-rule:evenodd" xmlns:xlink="http://www.w3.org/1999/xlink">
<g><path style="opacity:0.893" fill="#171748" d="M 2.5,-0.5 C 32.5,-0.5 62.5,-0.5 92.5,-0.5C 93.1667,0.833333 94.1667,1.83333 95.5,2.5C 95.5,30.8333 95.5,59.1667 95.5,87.5C 83.544,98.4575 72.2107,110.124 61.5,122.5C 41.8333,122.5 22.1667,122.5 2.5,122.5C 1.83333,121.167 0.833333,120.167 -0.5,119.5C -0.5,80.5 -0.5,41.5 -0.5,2.5C 0.833333,1.83333 1.83333,0.833333 2.5,-0.5 Z M 7.5,7.5 C 34.1667,7.5 60.8333,7.5 87.5,7.5C 87.5,31.5 87.5,55.5 87.5,79.5C 77.1613,79.3335 66.828,79.5002 56.5,80C 56,80.5 55.5,81 55,81.5C 54.5002,92.495 54.3335,103.495 54.5,114.5C 38.8333,114.5 23.1667,114.5 7.5,114.5C 7.5,78.8333 7.5,43.1667 7.5,7.5 Z M 45.5,25.5 C 47.9732,25.9473 48.1399,26.9473 46,28.5C 45.5172,27.552 45.3505,26.552 45.5,25.5 Z M 52.5,31.5 C 52.9699,35.9704 51.9699,36.4704 49.5,33C 50.5266,32.4867 51.5266,31.9867 52.5,31.5 Z M 43.5,38.5 C 45.4959,37.3122 46.3293,37.9789 46,40.5C 45.2917,39.6195 44.4584,38.9528 43.5,38.5 Z M 62.5,87.5 C 68.8421,87.3338 75.1754,87.5005 81.5,88C 75.6987,94.8025 69.5321,101.302 63,107.5C 62.5004,100.842 62.3337,94.175 62.5,87.5 Z"/></g>
<g><path style="opacity:0.829" fill="#171748" d="M 67.5,18.5 C 71.247,18.3924 74.9137,18.8924 78.5,20C 79.4231,22.0408 79.7564,24.2075 79.5,26.5C 76.0542,25.2931 72.7209,25.4598 69.5,27C 68.8729,28.7378 68.5396,30.5711 68.5,32.5C 68.6278,39.3305 71.9611,41.3305 78.5,38.5C 79.4742,40.7427 79.8076,43.076 79.5,45.5C 63.5194,49.0182 57.3528,42.6849 61,26.5C 61.6122,22.4029 63.7789,19.7363 67.5,18.5 Z"/></g>
<g><path style="opacity:0.842" fill="#171748" d="M 14.5,19.5 C 21.5,19.5 28.5,19.5 35.5,19.5C 35.5,21.8333 35.5,24.1667 35.5,26.5C 33.5,26.5 31.5,26.5 29.5,26.5C 29.5,33.1667 29.5,39.8333 29.5,46.5C 26.8806,46.7683 24.3806,46.435 22,45.5C 21.5005,39.1754 21.3338,32.8421 21.5,26.5C 19.1667,26.5 16.8333,26.5 14.5,26.5C 14.5,24.1667 14.5,21.8333 14.5,19.5 Z"/></g>
<g><path style="opacity:0.841" fill="#171748" d="M 52.5,31.5 C 54.8333,31.5 57.1667,31.5 59.5,31.5C 59.4947,35.0332 58.4947,38.1998 56.5,41C 57.8333,42.3333 59.1667,43.6667 60.5,45C 55.6534,45.38 50.8201,45.88 46,46.5C 38.5263,46.3679 35.5263,42.7012 37,35.5C 39.9996,33.9573 40.6663,31.9573 39,29.5C 38.1749,21.0039 42.0082,17.8373 50.5,20C 53.7122,23.3017 54.3788,27.135 52.5,31.5 Z M 45.5,25.5 C 45.3505,26.552 45.5172,27.552 46,28.5C 48.1399,26.9473 47.9732,25.9473 45.5,25.5 Z M 52.5,31.5 C 51.5266,31.9867 50.5266,32.4867 49.5,33C 51.9699,36.4704 52.9699,35.9704 52.5,31.5 Z M 43.5,38.5 C 44.4584,38.9528 45.2917,39.6195 46,40.5C 46.3293,37.9789 45.4959,37.3122 43.5,38.5 Z"/></g>
<g><path style="opacity:0.894" fill="#171748" d="M 17.5,61.5 C 37.5,61.5 57.5,61.5 77.5,61.5C 77.5,63.5 77.5,65.5 77.5,67.5C 57.5,67.5 37.5,67.5 17.5,67.5C 17.5,65.5 17.5,63.5 17.5,61.5 Z"/></g>
<g><path style="opacity:0.856" fill="#171748" d="M 17.5,75.5 C 27.1667,75.5 36.8333,75.5 46.5,75.5C 46.5,77.5 46.5,79.5 46.5,81.5C 36.8333,81.5 27.1667,81.5 17.5,81.5C 17.5,79.5 17.5,77.5 17.5,75.5 Z"/></g>
<g><path style="opacity:0.843" fill="#171748" d="M 17.5,89.5 C 24.5,89.5 31.5,89.5 38.5,89.5C 38.5,91.5 38.5,93.5 38.5,95.5C 31.5,95.5 24.5,95.5 17.5,95.5C 17.5,93.5 17.5,91.5 17.5,89.5 Z"/></g>
</svg>
