<svg width="21" height="19" viewBox="0 0 21 19" fill="none" xmlns="http://www.w3.org/2000/svg">
<path d="M12.75 12C13.716 12 14.5 12.784 14.5 13.75L14.499 14.712C14.616 16.902 12.988 18.009 10.067 18.009C7.157 18.009 5.5 16.919 5.5 14.75V13.75C5.5 12.784 6.284 12 7.25 12H12.75ZM1.75 7H6.126C5.95152 7.67899 5.95823 8.39188 6.14546 9.06746C6.3327 9.74305 6.6939 10.3577 7.193 10.85L7.355 11.001L7.25 11C6.64983 10.9998 6.06607 11.1959 5.58778 11.5585C5.10949 11.921 4.76294 12.4301 4.601 13.008L4.567 13.009C1.657 13.009 0 11.919 0 9.75V8.75C0 7.784 0.784 7 1.75 7ZM18.25 7C19.216 7 20 7.784 20 8.75L19.999 9.712C20.116 11.902 18.488 13.009 15.567 13.009L15.398 13.007C15.2443 12.4623 14.9265 11.9781 14.488 11.6203C14.0495 11.2625 13.5115 11.0484 12.947 11.007L12.75 11L12.645 11.001C13.2001 10.5134 13.6089 9.88129 13.8259 9.17504C14.0429 8.46879 14.0596 7.71615 13.874 7.001L18.25 7ZM10 5C10.394 5 10.7841 5.0776 11.1481 5.22836C11.512 5.37913 11.8427 5.6001 12.1213 5.87868C12.3999 6.15726 12.6209 6.48797 12.7716 6.85195C12.9224 7.21593 13 7.60603 13 8C13 8.39397 12.9224 8.78407 12.7716 9.14805C12.6209 9.51203 12.3999 9.84274 12.1213 10.1213C11.8427 10.3999 11.512 10.6209 11.1481 10.7716C10.7841 10.9224 10.394 11 10 11C9.20435 11 8.44129 10.6839 7.87868 10.1213C7.31607 9.55871 7 8.79565 7 8C7 7.20435 7.31607 6.44129 7.87868 5.87868C8.44129 5.31607 9.20435 5 10 5ZM4.5 0C5.29565 0 6.05871 0.316071 6.62132 0.87868C7.18393 1.44129 7.5 2.20435 7.5 3C7.5 3.79565 7.18393 4.55871 6.62132 5.12132C6.05871 5.68393 5.29565 6 4.5 6C3.70435 6 2.94129 5.68393 2.37868 5.12132C1.81607 4.55871 1.5 3.79565 1.5 3C1.5 2.20435 1.81607 1.44129 2.37868 0.87868C2.94129 0.316071 3.70435 0 4.5 0ZM15.5 0C16.2957 0 17.0587 0.316071 17.6213 0.87868C18.1839 1.44129 18.5 2.20435 18.5 3C18.5 3.79565 18.1839 4.55871 17.6213 5.12132C17.0587 5.68393 16.2957 6 15.5 6C14.7044 6 13.9413 5.68393 13.3787 5.12132C12.8161 4.55871 12.5 3.79565 12.5 3C12.5 2.20435 12.8161 1.44129 13.3787 0.87868C13.9413 0.316071 14.7044 0 15.5 0Z" fill="#171748"/>
</svg>
